<svg aria-hidden="true" style="position: absolute; width: 0; height: 0; overflow: hidden;" version="1.1" xmlns="http://www.w3.org/2000/svg" xmlns:xlink="http://www.w3.org/1999/xlink">
<defs>
<symbol id="logo-icon" viewBox="0 0 32 32">
<path fill="#fcf1e0" style="fill: var(--color1, #fcf1e0)" d="M3.944 20.076l10.776-17.424 0.64-0.675 8.236 5.491 0.057 3.315 2.009 3.28-8.88 14.076-12.84-8.063z"></path>
<path fill="none" stroke="#fd9222" style="stroke: var(--color2, #fd9222)" stroke-linejoin="round" stroke-linecap="round" stroke-miterlimit="4" stroke-width="2.6667" d="M21.635 23.88l-14.187-8.864M11.361 8.599l14.185 8.864M10.629 25.864l11.736-19.249M27.176 14.788c-3.040-1.899-4.233-3.383-2.277-6.591l-9.627-6.016-11.735 19.251 14.185 8.864 9.453-15.507z"></path>
</symbol>
<symbol id="instagram-icon" viewBox="0 0 32 32">
<path d="M31.968 9.408c-0.074-1.7-0.35-2.87-0.744-3.882-0.424-1.112-1.053-2.060-1.849-2.839l-0.001-0.001c-0.78-0.791-1.724-1.417-2.778-1.824l-0.054-0.018c-1.020-0.394-2.18-0.67-3.88-0.744-1.716-0.080-2.262-0.1-6.602-0.1-4.346 0-4.89 0.020-6.596 0.094-1.7 0.074-2.868 0.35-3.88 0.744-1.112 0.424-2.060 1.053-2.839 1.849l-0.001 0.001c-0.792 0.78-1.419 1.724-1.826 2.778l-0.018 0.054c-0.394 1.020-0.668 2.18-0.744 3.88-0.080 1.714-0.1 2.26-0.1 6.602 0 4.346 0.020 4.89 0.094 6.596 0.074 1.7 0.35 2.87 0.744 3.882 0.406 1.076 1.038 2.038 1.85 2.838 0.8 0.812 1.77 1.444 2.832 1.844 1.020 0.394 2.18 0.67 3.882 0.744 1.706 0.076 2.25 0.094 6.596 0.094 4.344 0 4.888-0.020 6.594-0.094 1.7-0.074 2.87-0.35 3.882-0.744 2.157-0.85 3.832-2.525 4.663-4.627l0.019-0.055c0.394-1.020 0.67-2.18 0.744-3.882 0.076-1.706 0.094-2.25 0.094-6.596 0-4.344-0.006-4.888-0.080-6.594zM29.088 22.472c-0.070 1.564-0.332 2.408-0.552 2.97-0.551 1.4-1.638 2.488-3.002 3.027l-0.036 0.013c-0.562 0.218-1.412 0.48-2.968 0.548-1.688 0.076-2.194 0.094-6.464 0.094s-4.782-0.020-6.464-0.094c-1.564-0.068-2.408-0.33-2.97-0.55-0.721-0.269-1.335-0.676-1.837-1.193l-0.001-0.001c-0.516-0.504-0.923-1.118-1.183-1.804l-0.011-0.034c-0.22-0.562-0.48-1.412-0.55-2.968-0.074-1.688-0.094-2.196-0.094-6.464 0-4.27 0.020-4.782 0.094-6.464 0.070-1.564 0.332-2.408 0.55-2.97 0.256-0.694 0.664-1.324 1.2-1.838 0.52-0.532 1.144-0.938 1.84-1.194 0.56-0.22 1.412-0.48 2.968-0.55 1.688-0.074 2.194-0.094 6.464-0.094 4.276 0 4.78 0.020 6.464 0.094 1.562 0.070 2.406 0.332 2.968 0.55 0.694 0.256 1.326 0.662 1.84 1.194 0.53 0.52 0.936 1.144 1.192 1.84 0.22 0.56 0.482 1.41 0.55 2.968 0.076 1.688 0.094 2.194 0.094 6.464s-0.018 4.77-0.092 6.456z"></path>
<path d="M16.060 7.782c-4.462 0.102-8.041 3.743-8.041 8.22s3.578 8.118 8.031 8.22l0.009 0c4.462-0.102 8.041-3.743 8.041-8.22s-3.578-8.118-8.031-8.22l-0.009-0zM16.060 21.336c-2.946 0-5.334-2.388-5.334-5.334s2.388-5.334 5.334-5.334v0c2.946 0 5.334 2.388 5.334 5.334s-2.388 5.334-5.334 5.334v0zM26.524 7.458c0 1.060-0.86 1.92-1.92 1.92s-1.92-0.86-1.92-1.92v0c0-1.060 0.86-1.92 1.92-1.92s1.92 0.86 1.92 1.92v0z"></path>
</symbol>
<symbol id="twitter-icon" viewBox="0 0 32 32">
<path d="M30.667 4c-1.2 0.856-2.591 1.552-4.084 2.013l-0.103 0.027c-1.101-1.261-2.712-2.053-4.507-2.053-3.299 0-5.973 2.674-5.973 5.973 0 0.028 0 0.056 0.001 0.084l-0-0.004v1.333c-0.109 0.003-0.238 0.005-0.367 0.005-2.331 0-4.53-0.561-6.471-1.555l0.080 0.037c-2.093-1.053-4.56-3.563-5.908-5.48 0 0-4.667 12.953 7.333 18.287-2.442 1.677-5.462 2.679-8.716 2.679-0.217 0-0.433-0.004-0.648-0.013l0.031 0.001c12 6.667 26.667 0 26.667-15.333 0-0.372-0.037-0.741-0.107-1.107 1.323-1.305 2.293-2.963 2.758-4.822l0.015-0.071z"></path>
</symbol>
<symbol id="scroll-icon" viewBox="0 0 32 32">
<path fill="#fd9222" style="fill: var(--color1, #fd9222)" d="M16.945 17.868c-0.242 0.242-0.576 0.392-0.945 0.392s-0.704-0.15-0.945-0.392l-0-0-6.109-6.121c-0.244-0.264-0.592-0.428-0.979-0.428-0.737 0-1.334 0.597-1.334 1.334 0 0.384 0.162 0.729 0.421 0.973l0.001 0.001 6.119 6.121c0.724 0.723 1.723 1.169 2.826 1.169s2.103-0.447 2.826-1.169l6.121-6.121c0.239-0.241 0.387-0.573 0.387-0.94 0-0.737-0.597-1.334-1.334-1.334-0.37 0-0.705 0.151-0.947 0.394l-0 0-6.106 6.119z"></path>
</symbol>
<symbol id="benefits-chocolate" viewBox="0 0 32 32">
<path fill="#000" style="fill: var(--color2, #000)" d="M13.822 2.413l7.527 7.536 0.080-0.080c0.154-0.151 0.366-0.244 0.599-0.244 0.227 0 0.433 0.088 0.586 0.232l-0-0 0.873 0.873c0.305 0.305 0.315 0.77 0.083 1.094l-0.004 0.007-0.143 0.192 6.16 6.16c0.55 0.55 0.55 1.43 0 1.98l-9.43 9.43c-0.55 0.55-1.43 0.55-1.98 0l-4.447-4.447c-0.155 0.195-0.393 0.319-0.659 0.319-0.233 0-0.444-0.095-0.596-0.248l-2.6-2.6c-0.151-0.154-0.244-0.366-0.244-0.599 0-0.227 0.088-0.433 0.232-0.586l-0 0 0.006-0.007 0.077-0.076-7.527-7.527c-0.55-0.55-0.55-1.43 0-1.98l9.43-9.43c0.55-0.55 1.43-0.55 1.98 0v0.001zM20.404 10.893l-1.756-1.755c-0.108-0.111-0.258-0.18-0.425-0.18s-0.317 0.069-0.425 0.18l-3.58 3.58c-0.111 0.11-0.179 0.262-0.179 0.43s0.068 0.32 0.179 0.43l1.749 1.749 0.61-0.61-1.565-1.565 3.21-3.22 1.569 1.574 0.613-0.613zM15.328 15.965l-1.754-1.754c-0.108-0.111-0.258-0.18-0.425-0.18s-0.317 0.069-0.425 0.18l-3.59 3.59c-0.24 0.23-0.24 0.61 0 0.85l1.752 1.752 0.616-0.616-1.57-1.564 3.22-3.21 1.564 1.563 0.612-0.611zM8.822 8.193l3.58 3.58c0.24 0.24 0.62 0.24 0.85-0.010l3.58-3.58c0.111-0.106 0.18-0.255 0.18-0.42 0-0 0-0 0-0v0h0.010c0-0.15-0.060-0.31-0.18-0.43l-3.58-3.58c-0.11-0.111-0.262-0.18-0.43-0.18s-0.32 0.069-0.43 0.18l-0 0-3.58 3.59c-0.24 0.23-0.24 0.61 0 0.85zM3.752 13.263l3.58 3.58c0.24 0.24 0.62 0.24 0.85 0l3.58-3.58c0.111-0.106 0.18-0.255 0.18-0.42 0-0.004-0-0.007-0-0.010v0.001h0.010c0-0.16-0.060-0.31-0.18-0.43l-3.58-3.58c-0.108-0.111-0.258-0.18-0.425-0.18s-0.317 0.069-0.425 0.18l-3.59 3.59c-0.24 0.23-0.24 0.61 0 0.85zM10.685 22.017l2.362 2.363 9.636-13.040-0.655-0.655-11.343 11.332z"></path>
<path fill="#fd9222" style="fill: var(--color1, #fd9222)" d="M13.822 2.413l7.527 7.536 0.080-0.080c0.154-0.151 0.366-0.244 0.599-0.244 0.227 0 0.433 0.088 0.586 0.232l-0-0 0.873 0.873c0.305 0.305 0.315 0.77 0.083 1.094l-0.004 0.007-0.143 0.192 6.16 6.16c0.55 0.55 0.55 1.43 0 1.98l-9.43 9.43c-0.55 0.55-1.43 0.55-1.98 0l-4.447-4.447c-0.155 0.195-0.393 0.319-0.659 0.319-0.233 0-0.444-0.095-0.596-0.248l-2.6-2.6c-0.151-0.154-0.244-0.366-0.244-0.599 0-0.227 0.088-0.433 0.232-0.586l-0 0 0.006-0.007 0.077-0.076-7.527-7.527c-0.55-0.55-0.55-1.43 0-1.98l9.43-9.43c0.55-0.55 1.43-0.55 1.98 0v0.001zM20.404 10.893l-1.756-1.755c-0.108-0.111-0.258-0.18-0.425-0.18s-0.317 0.069-0.425 0.18l-3.58 3.58c-0.111 0.11-0.179 0.262-0.179 0.43s0.068 0.32 0.179 0.43l1.749 1.749 0.61-0.61-1.565-1.565 3.21-3.22 1.569 1.574 0.613-0.613zM15.328 15.965l-1.754-1.754c-0.108-0.111-0.258-0.18-0.425-0.18s-0.317 0.069-0.425 0.18l-3.59 3.59c-0.24 0.23-0.24 0.61 0 0.85l1.752 1.752 0.616-0.616-1.57-1.564 3.22-3.21 1.564 1.563 0.612-0.611zM8.822 8.193l3.58 3.58c0.24 0.24 0.62 0.24 0.85-0.010l3.58-3.58c0.111-0.106 0.18-0.255 0.18-0.42 0-0 0-0 0-0v0h0.010c0-0.15-0.060-0.31-0.18-0.43l-3.58-3.58c-0.11-0.111-0.262-0.18-0.43-0.18s-0.32 0.069-0.43 0.18l-0 0-3.58 3.59c-0.24 0.23-0.24 0.61 0 0.85zM3.752 13.263l3.58 3.58c0.24 0.24 0.62 0.24 0.85 0l3.58-3.58c0.111-0.106 0.18-0.255 0.18-0.42 0-0.004-0-0.007-0-0.010v0.001h0.010c0-0.16-0.060-0.31-0.18-0.43l-3.58-3.58c-0.108-0.111-0.258-0.18-0.425-0.18s-0.317 0.069-0.425 0.18l-3.59 3.59c-0.24 0.23-0.24 0.61 0 0.85zM10.685 22.017l2.362 2.363 9.636-13.040-0.655-0.655-11.343 11.332z"></path>
</symbol>
<symbol id="benefits-coin" viewBox="0 0 32 32">
<path fill="#fd9222" style="fill: var(--color1, #fd9222)" d="M16 0.762c-8.381 0-15.238 6.857-15.238 15.238s6.857 15.238 15.238 15.238 15.238-6.857 15.238-15.238-6.857-15.238-15.238-15.238zM16 28.191c-6.705 0-12.191-5.486-12.191-12.191s5.486-12.191 12.191-12.191 12.191 5.486 12.191 12.191-5.486 12.191-12.191 12.191z"></path>
<path fill="#fd9222" style="fill: var(--color1, #fd9222)" d="M17.981 14.477h-3.961c-0.762 0-1.371-0.61-1.371-1.371 0-0.762 0.609-1.371 1.371-1.371h5.638c0.914 0 1.523-0.61 1.523-1.525s-0.609-1.523-1.523-1.523h-2.134v-1.371c0-0.914-0.609-1.523-1.523-1.523s-1.523 0.609-1.523 1.523v1.371h-0.457c-2.44 0.002-4.417 1.979-4.419 4.419v0c0.003 2.439 1.98 4.416 4.419 4.418h3.809c0.762 0 1.371 0.61 1.371 1.371 0 0.762-0.609 1.371-1.371 1.371h-5.638c-0.914 0-1.525 0.61-1.525 1.525s0.61 1.523 1.525 1.523h2.286v1.371c0 0.914 0.609 1.523 1.523 1.523s1.523-0.609 1.523-1.523v-1.371h0.457c2.44-0.002 4.417-1.979 4.419-4.419v-0c-0.003-2.439-1.98-4.416-4.419-4.418h-0z"></path>
</symbol>
<symbol id="benefits-spoon" viewBox="0 0 32 32">
<path fill="#fd9222" style="fill: var(--color1, #fd9222)" d="M15.451 14.106c-0.732-0.884-1.176-2.029-1.176-3.278 0-0.001 0-0.003 0-0.004v0c0-4.324 5.181-8.642 10.362-8.642 2.861 0.001 5.18 2.321 5.181 5.182v0c0 5.182-4.317 10.364-8.646 10.364-0.001 0-0.002 0-0.003 0-1.249 0-2.395-0.444-3.287-1.184l0.009 0.007-12.758 12.761c-0.308 0.287-0.723 0.463-1.178 0.463-0.955 0-1.73-0.775-1.73-1.73 0-0.456 0.176-0.87 0.464-1.179l-0.001 0.001 12.764-12.761z"></path>
</symbol>
<symbol id="modal-btn" viewBox="0 0 32 32">
<path d="M32 3.224l-3.224-3.224-12.776 12.776-12.776-12.776-3.224 3.224 12.776 12.776-12.776 12.776 3.224 3.224 12.776-12.776 12.776 12.776 3.224-3.224-12.776-12.776 12.776-12.776z"></path>
</symbol>
<symbol id="modal-icon-ukraine" viewBox="0 0 41 32">
<path fill="#ffd700" style="fill: var(--color1, #ffd700)" d="M40.745 1.355h-40.434v30.090h40.434v-30.090z"></path>
<path fill="#0057b7" style="fill: var(--color2, #0057b7)" d="M0.311 1.355h40.434v15.045h-40.434v-15.045z"></path>
</symbol>
</defs>
</svg>
